<mxfile host="app.diagrams.net" modified="2023-04-03T17:28:03.057Z" agent="Mozilla/5.0 (Windows NT 10.0; Win64; x64) AppleWebKit/537.36 (KHTML, like Gecko) Chrome/111.0.0.0 Safari/537.36" etag="_LaML191b97Fljv-FLlE" version="21.1.2" type="device">
  <diagram name="Page-1" id="e3a06f82-3646-2815-327d-82caf3d4e204">
    <mxGraphModel dx="2974.5" dy="707" grid="1" gridSize="10" guides="1" tooltips="1" connect="1" arrows="1" fold="1" page="1" pageScale="1.5" pageWidth="1169" pageHeight="826" background="none" math="0" shadow="0">
      <root>
        <mxCell id="0" style=";html=1;" />
        <mxCell id="1" style=";html=1;" parent="0" />
        <mxCell id="6a7d8f32e03d9370-57" value="&lt;font style=&quot;font-size: 24px;&quot;&gt;&lt;b&gt;Cerbo GX - Venus OS Large image&lt;/b&gt;&lt;/font&gt;" style="whiteSpace=wrap;html=1;fillColor=#FFD470;gradientColor=none;fontSize=14;strokeColor=none;verticalAlign=top;" parent="1" vertex="1">
          <mxGeometry x="-20" y="98" width="1140" height="572" as="geometry" />
        </mxCell>
        <mxCell id="b4ZLZ5prfcN9Wpe3Iwp1-5" value="&lt;b&gt;&lt;font style=&quot;font-size: 18px;&quot;&gt;NODE-RED&lt;/font&gt;&lt;/b&gt;" style="whiteSpace=wrap;html=1;fillColor=yellow;gradientColor=none;fontSize=14;strokeColor=none;verticalAlign=top;" parent="1" vertex="1">
          <mxGeometry x="30" y="150" width="810" height="290" as="geometry" />
        </mxCell>
        <mxCell id="b4ZLZ5prfcN9Wpe3Iwp1-8" value="&lt;font style=&quot;font-size: 18px;&quot;&gt;&lt;b&gt;Modbus&lt;/b&gt;&lt;/font&gt;" style="whiteSpace=wrap;html=1;fillColor=yellow;gradientColor=none;fontSize=14;strokeColor=none;verticalAlign=top;" parent="1" vertex="1">
          <mxGeometry x="1000" y="150" width="97" height="490" as="geometry" />
        </mxCell>
        <mxCell id="b4ZLZ5prfcN9Wpe3Iwp1-9" value="" style="shape=image;verticalLabelPosition=bottom;labelBackgroundColor=default;verticalAlign=top;aspect=fixed;imageAspect=0;image=https://raw.githubusercontent.com/victronenergy/node-red-contrib-victron/master/documentation/images/node-palette.png;" parent="1" vertex="1">
          <mxGeometry x="560" y="190" width="340" height="213.15" as="geometry" />
        </mxCell>
        <mxCell id="b4ZLZ5prfcN9Wpe3Iwp1-15" value="" style="shape=singleArrow;direction=west;whiteSpace=wrap;html=1;fillColor=lightblue" parent="1" vertex="1">
          <mxGeometry x="890" y="230" width="149.5" height="123.43" as="geometry" />
        </mxCell>
        <mxCell id="b4ZLZ5prfcN9Wpe3Iwp1-18" value="Victron Smartshunt" style="rounded=1;whiteSpace=wrap;html=1;fillColor=lightgreen" parent="1" vertex="1">
          <mxGeometry x="1270" y="190" width="120" height="60" as="geometry" />
        </mxCell>
        <mxCell id="b4ZLZ5prfcN9Wpe3Iwp1-19" value="BMS 1" style="rounded=1;whiteSpace=wrap;html=1;fillColor=lightgreen" parent="1" vertex="1">
          <mxGeometry x="1270" y="270" width="120" height="60" as="geometry" />
        </mxCell>
        <mxCell id="b4ZLZ5prfcN9Wpe3Iwp1-20" value="BMS 2" style="rounded=1;whiteSpace=wrap;html=1;fillColor=lightgreen" parent="1" vertex="1">
          <mxGeometry x="1270" y="353.43" width="120" height="60" as="geometry" />
        </mxCell>
        <mxCell id="b4ZLZ5prfcN9Wpe3Iwp1-21" value="&lt;b&gt;&lt;font style=&quot;font-size: 24px;&quot;&gt;&lt;br&gt;Victron virtual battery driver&lt;/font&gt;&lt;/b&gt;" style="whiteSpace=wrap;html=1;fillColor=lightblue;gradientColor=none;fontSize=14;strokeColor=none;verticalAlign=top;" parent="1" vertex="1">
          <mxGeometry x="30" y="550" width="810" height="90" as="geometry" />
        </mxCell>
        <mxCell id="b4ZLZ5prfcN9Wpe3Iwp1-23" value="" style="shape=singleArrow;direction=west;whiteSpace=wrap;html=1;fillColor=lightblue" parent="1" vertex="1">
          <mxGeometry x="1080" y="190" width="170" height="60" as="geometry" />
        </mxCell>
        <mxCell id="b4ZLZ5prfcN9Wpe3Iwp1-24" value="" style="shape=singleArrow;direction=west;whiteSpace=wrap;html=1;fillColor=lightblue" parent="1" vertex="1">
          <mxGeometry x="1085" y="271" width="170" height="60" as="geometry" />
        </mxCell>
        <mxCell id="b4ZLZ5prfcN9Wpe3Iwp1-25" value="" style="shape=singleArrow;direction=west;whiteSpace=wrap;html=1;fillColor=lightblue" parent="1" vertex="1">
          <mxGeometry x="1085" y="351" width="170" height="60" as="geometry" />
        </mxCell>
        <mxCell id="b4ZLZ5prfcN9Wpe3Iwp1-26" value="Multiplus&amp;nbsp;" style="rounded=1;whiteSpace=wrap;html=1;fillColor=lightgreen" parent="1" vertex="1">
          <mxGeometry x="1270" y="433.43" width="120" height="60" as="geometry" />
        </mxCell>
        <mxCell id="b4ZLZ5prfcN9Wpe3Iwp1-27" value="" style="shape=singleArrow;direction=west;whiteSpace=wrap;html=1;fillColor=lightblue" parent="1" vertex="1">
          <mxGeometry x="1085" y="431" width="170" height="60" as="geometry" />
        </mxCell>
        <mxCell id="b4ZLZ5prfcN9Wpe3Iwp1-28" value="" style="shape=singleArrow;direction=west;whiteSpace=wrap;html=1;fillColor=lightblue" parent="1" vertex="1">
          <mxGeometry x="1085" y="511" width="170" height="60" as="geometry" />
        </mxCell>
        <mxCell id="b4ZLZ5prfcN9Wpe3Iwp1-29" value="Solar charger" style="rounded=1;whiteSpace=wrap;html=1;fillColor=lightgreen" parent="1" vertex="1">
          <mxGeometry x="1270" y="513.4300000000001" width="120" height="60" as="geometry" />
        </mxCell>
        <mxCell id="b4ZLZ5prfcN9Wpe3Iwp1-31" value="&lt;b&gt;&lt;font style=&quot;font-size: 18px;&quot;&gt;pushing data from node-red to driver&lt;/font&gt;&lt;/b&gt;" style="shape=singleArrow;direction=south;whiteSpace=wrap;html=1;fontSize=14;fillColor=lightblue" parent="1" vertex="1">
          <mxGeometry x="100" y="392.71" width="80" height="136.57" as="geometry" />
        </mxCell>
        <mxCell id="b4ZLZ5prfcN9Wpe3Iwp1-32" value="Data manipulation" style="ellipse;whiteSpace=wrap;html=1;fontSize=14;" parent="1" vertex="1">
          <mxGeometry x="270" y="221.72" width="210" height="140" as="geometry" />
        </mxCell>
        <mxCell id="b4ZLZ5prfcN9Wpe3Iwp1-33" value="" style="shape=singleArrow;direction=west;whiteSpace=wrap;html=1;fillColor=lightblue" parent="1" vertex="1">
          <mxGeometry x="480" y="261.72" width="80" height="60" as="geometry" />
        </mxCell>
        <mxCell id="b4ZLZ5prfcN9Wpe3Iwp1-34" value="" style="shape=singleArrow;direction=west;whiteSpace=wrap;html=1;fillColor=lightblue" parent="1" vertex="1">
          <mxGeometry x="210" y="261.72" width="80" height="60" as="geometry" />
        </mxCell>
        <mxCell id="wamHNPvwVdszfmEZm6xI-1" value="MQTT server from VenusOS itself" style="outlineConnect=0;dashed=0;verticalLabelPosition=bottom;verticalAlign=top;align=center;html=1;shape=mxgraph.aws3.mqtt_protocol;fillColor=#5294CF;gradientColor=none;" vertex="1" parent="1">
          <mxGeometry x="90" y="245" width="100" height="100" as="geometry" />
        </mxCell>
      </root>
    </mxGraphModel>
  </diagram>
</mxfile>
